<?xml version="1.0" standalone="no"?>
<!DOCTYPE svg PUBLIC "-//W3C//DTD SVG 20010904//EN"
 "http://www.w3.org/TR/2001/REC-SVG-20010904/DTD/svg10.dtd">
<svg version="1.0" xmlns="http://www.w3.org/2000/svg"
 width="1280.000000pt" height="700.000000pt" viewBox="0 0 1280.000000 700.000000"
 preserveAspectRatio="xMidYMid meet">

<g transform="translate(0.000000,700.000000) scale(0.100000,-0.100000)"
fill="#000000" stroke="none">
<path d="M6270 5509 c-248 -23 -520 -84 -705 -158 -295 -118 -620 -416 -894
-821 -284 -420 -473 -855 -520 -1203 -16 -114 -13 -356 4 -467 55 -337 201
-621 441 -855 207 -203 477 -358 954 -550 376 -152 699 -257 1065 -349 382
-96 666 -137 940 -138 341 -1 497 50 677 221 250 237 434 650 552 1241 62 311
80 503 81 845 0 266 -3 314 -22 425 -88 499 -338 1004 -652 1318 -270 270
-556 394 -1097 473 -120 17 -205 22 -439 24 -159 2 -333 -1 -385 -6z"/>
</g>
</svg>


